<?xml version="1.0" encoding="utf-8"?>
<!-- Generator: Adobe Illustrator 27.1.1, SVG Export Plug-In . SVG Version: 6.00 Build 0)  -->
<svg version="1.1" id="Calque_1" xmlns="http://www.w3.org/2000/svg" xmlns:xlink="http://www.w3.org/1999/xlink" x="0px" y="0px"
	 viewBox="0 0 1366 768" style="enable-background:new 0 0 1366 768;" xml:space="preserve">
<style type="text/css">
	.st0{fill:#226C42;stroke:#2EAA74;stroke-miterlimit:10;}
	.st1{fill:#606060;}
	.st2{fill:none;}
</style>
<path class="st0" d="M1365.5,0.5c-173.49,257.91-278.91,512.17-338.12,754.02c-1.14,4.66-2.27,9.32-3.38,13.98c114,0,228,0,342,0"/>
<path class="st0" d="M-0.5,432.5c-4.97,52.02-8.1,109.26-8,171c0.1,59.42,3.19,114.64,8,165
	C351.31,386.51,422.74,150.12,357.71,1.98c-0.07-0.16-0.14-0.32-0.21-0.48c-119.33-0.33-238.67-0.67-358-1"/>
<path class="st1" d="M1372,357c-0.82,48.28,15.33,103.56,21,103c16.11-1.6-22.61-457.3-28-457c-3.36,0.19,2.48,177.74-26,182
	c-2.75,0.41-4.11-1.03-7,0c-15.98,5.67-7.53,61.43-5,116c0.23,5.07,2.71,62.65-4,122c-8.84,81.97-13.26,122.96-43,155
	c-41.86,45.11-87.31,24.04-121,74c-21.46,31.83-11.1,52.35-34,79c-26.67,31.03-70.02,37.27-101,38
	c26.81-46.63,46.18-85.58,59.17-113.19c12.89-27.39,16.73-37.46,29.83-62.81c65.06-125.85,106.72-147.31,96-166
	c-20.41-35.59-179.73,27.66-394.39,107.74c-2.04-3.06-4.09-6.15-6.16-9.27c19.59-7.4,39.42-15.56,59.99-25.02
	c27.32-12.57,37.4-23.74,41.56-20.45c9.06,7.16-14.82,74.9-46,91C752.7,628.47,285.9,163.38,369-17
	c64.69-140.43,469.09-122.23,996.23,19.57c0.28,8.06,0.54,13.17,0.77,16.43c0.59,8.48-0.81-4.2,6.73,303.79
	C1373.17,340.99,1372.11,350.78,1372,357z"/>
<path class="st1" d="M987.81,798.39c-4.39,1.05-8.35,1.6-11.81,1.61c0,0,0,0-39,0H680c-90,0-180-0.18-270,0
	c-192.88,0.39-306.26,2.27-363.75,1.34l-0.47-0.01l-15.39-0.36C8.14,800.22-1.78,798.72-2,796c6.77-3.24,13.4-6.05,19.93-8.48
	c26.66-6.67,72.62-13.56,90.22-16.24c-28.72,1.17-58.14,4.25-90.22,16.24C5.9,790.53-2.2,793.49-2,796
	c-2.55,1.22-4.73,2.31-6.42,3.19c-7.22-4.54-8.9-7.83-8.58-10.19c0.61-4.52,9-9,9-9l0,0c0.01-0.01,22.06-24.93,33-50
	c7.66-17.55,8.37-32.52,9.61-47.82C38.15,638.34,24.79,613.02,40,559c21.96-77.99,66.46-84.33,66-145
	c-0.43-57.02-39.85-67.55-32-104c11.35-52.71,137.94-47.7,215-139c65.48-77.58,30.25-156.06,69-169c23.99-8.01,70.33,11.11,360,436
	c18.25,26.77,45.82,67.27,80.45,119.47c2.07,3.12,4.12,6.21,6.16,9.27C890.38,696,945.06,779.94,987.81,798.39z"/>
<path class="st1" d="M1.58,767.19c-0.17,0.29-0.34,0.57-0.49,0.84L0,768C0.46,767.76,0.99,767.48,1.58,767.19z"/>
<path class="st1" d="M1046,793C211.07,854.99,4.32,827.23-3,783c-0.8-4.83,0.87-9.33,4.09-14.97l39.3,0.94
	c4.6,0.15,9.72,0.27,15.39,0.36l0.47,0.01L1046,793z"/>
<path class="st1" d="M1113,593c-13.96,18.47-18.8,37.25-29.83,62.81c-18.24,42.25-26.75,70.52-35.14,88.43
	c-0.41,0.87-11.94,15.64-24.03,24.76c-47.68,35.95-143.11,9.78-199-32c-99.16-74.12-91.96-210.88-91-225
	c93.42,2.8,158.64-18.1,201.43-38.25c54.22-25.53,80.6-53.69,146.57-65.75c29.39-5.37,100.1-18.3,127,19
	c18.48,25.63,11.41,68.23-6,95C1178.99,558.91,1145.98,549.36,1113,593z"/>
<path class="st1" d="M1365.23,2.57c0.02-1.74,0.15-2.9,0.43-2.94c0.03,0,0.16,0.02,0.34,0.37
	C1366.08,0.15,1365.82,1.02,1365.23,2.57z"/>
<path class="st1" d="M1357,430"/>
<path class="st2" d="M223,691c51.77-7.79,126.45,72.29,112,111c-26.07,69.84-349.33,23.88-352-13c-0.48-6.58,9.77-5.81,73-50
	c15.44-10.79,25.74-18.47,38-16c18.5,3.73,18.92,26.02,34,31C155.54,763.09,180.37,697.42,223,691z"/>
<path class="st1" d="M124,691"/>
<path class="st1" d="M1105,420"/>
<path class="st1" d="M1527,464c-56.67-8.33-113.33-16.67-170-25"/>
<path class="st1" d="M1349,563c-3,17.33-6,34.67-9,52"/>
</svg>
